<?xml version="1.0" encoding="UTF-8"?>
<svg width="26px" height="26px" viewBox="0 0 26 26" version="1.1" xmlns="http://www.w3.org/2000/svg" xmlns:xlink="http://www.w3.org/1999/xlink">
    <!-- Generator: Sketch 61 (89581) - https://sketch.com -->
    <title>002-instagram</title>
    <desc>Created with Sketch.</desc>
    <g id="Symbols" stroke="none" stroke-width="1" fill="none" fill-rule="evenodd">
        <g id="footer-ok" transform="translate(-596.000000, -145.000000)" fill="#FFFFFF">
            <g id="002-instagram">
                <g transform="translate(596.000000, 145.000000)">
                    <g id="Shape">
                        <path d="M17.875,0 L8.125,0 C3.6359375,0 0,3.6359375 0,8.125 L0,17.875 C0,22.3640625 3.6359375,26 8.125,26 L17.875,26 C22.3640625,26 26,22.3640625 26,17.875 L26,8.125 C26,3.6359375 22.3640625,0 17.875,0 Z M23.5625,17.875 C23.5625,21.0132813 21.0132813,23.5625 17.875,23.5625 L8.125,23.5625 C4.98671875,23.5625 2.4375,21.0132813 2.4375,17.875 L2.4375,8.125 C2.4375,4.98671875 4.98671875,2.4375 8.125,2.4375 L17.875,2.4375 C21.0132813,2.4375 23.5625,4.98671875 23.5625,8.125 L23.5625,17.875 Z" fill-rule="nonzero"></path>
                        <path d="M13,7 C9.6859375,7 7,9.6859375 7,13 C7,16.3140625 9.6859375,19 13,19 C16.3140625,19 19,16.3140625 19,13 C19,9.6859375 16.3140625,7 13,7 Z M13,17 C10.795,17 9,15.205 9,13 C9,10.795 10.795,9 13,9 C15.205,9 17,10.795 17,13 C17,15.205 15.205,17 13,17 Z" fill-rule="nonzero"></path>
                    </g>
                </g>
            </g>
        </g>
    </g>
</svg>