<?xml version="1.0" encoding="UTF-8"?>
<svg width="26px" height="22px" viewBox="0 0 26 22" version="1.1" xmlns="http://www.w3.org/2000/svg" xmlns:xlink="http://www.w3.org/1999/xlink">
    <!-- Generator: Sketch 61 (89581) - https://sketch.com -->
    <title>007-vimeo</title>
    <desc>Created with Sketch.</desc>
    <g id="Symbols" stroke="none" stroke-width="1" fill="none" fill-rule="evenodd">
        <g id="footer-ok" transform="translate(-706.000000, -147.000000)" fill="#FFFFFF">
            <g id="007-vimeo">
                <g transform="translate(706.000000, 147.000000)">
                    <g id="Path">
                        <path d="M14.9188034,5.92013347 C17.8794896,4.19687479 19.4752052,6.62581892 17.9574879,9.37137639 C16.4365207,12.1279602 15.0406758,13.9252528 14.3175664,13.9252528 C13.6074567,13.9252528 13.0452188,12.0759789 12.2132367,8.86574016 C11.3601301,5.5405125 11.3601301,-0.454663492 7.79170705,0.225818911 C4.41827976,0.871647118 0,5.99101705 0,5.99101705 L1.04972737,7.33150438 C1.04972737,7.33150438 3.22718044,5.66652775 3.95191482,6.49507809 C4.68639898,7.33150438 7.46671406,17.3749206 8.38644423,19.2320705 C9.18917693,20.8592425 11.4170039,23.0062275 13.8512014,21.4751421 C16.3081485,19.9346056 24.4183487,13.2211426 25.8710674,5.27745564 C27.3205361,-2.65205459 16.0952781,-0.991803537 14.9188034,5.92013347 Z" fill-rule="nonzero"></path>
                    </g>
                </g>
            </g>
        </g>
    </g>
</svg>