<?xml version="1.0" encoding="UTF-8"?>
<svg width="32px" height="22px" viewBox="0 0 32 22" version="1.1" xmlns="http://www.w3.org/2000/svg" xmlns:xlink="http://www.w3.org/1999/xlink">
    <!-- Generator: Sketch 61 (89581) - https://sketch.com -->
    <title>003-youtube</title>
    <desc>Created with Sketch.</desc>
    <g id="Symbols" stroke="none" stroke-width="1" fill="none" fill-rule="evenodd">
        <g id="footer-ok" transform="translate(-650.000000, -147.000000)" fill="#FFFFFF">
            <g id="003-youtube">
                <g transform="translate(650.000000, 147.000000)">
                    <g id="Shape">
                        <path d="M30.64,2.12 C29.772,0.576 28.83,0.292 26.912,0.184 C24.996,0.054 20.178,0 16.004,0 C11.822,0 7.002,0.054 5.088,0.182 C3.174,0.292 2.23,0.574 1.354,2.12 C0.46,3.662 0,6.318 0,10.994 C0,10.998 0,11 0,11 C0,11.004 0,11.006 0,11.006 L0,11.01 C0,15.666 0.46,18.342 1.354,19.868 C2.23,21.412 3.172,21.692 5.086,21.822 C7.002,21.934 11.822,22 16.004,22 C20.178,22 24.996,21.934 26.914,21.824 C28.832,21.694 29.774,21.414 30.642,19.87 C31.544,18.344 32,15.668 32,11.012 C32,11.012 32,11.006 32,11.002 C32,11.002 32,10.998 32,10.996 C32,6.318 31.544,3.662 30.64,2.12 Z M12,17 L12,5 L22,11 L12,17 Z" fill-rule="nonzero"></path>
                    </g>
                </g>
            </g>
        </g>
    </g>
</svg>